<svg
  width="400"
  height="329"
  viewBox="0 0 400 329"
  fill="#e45a53"
  xmlns="http://www.w3.org/2000/svg"
>
  <path d="M0 60.6779H16.3228C28.2921 60.6779 42.1694 50.8777 42.1694 30.7386H48.9692V60.6779H66.1074V67.2006H48.9692V184.48C48.9692 210.065 50.6001 227.742 68.2931 227.742C81.3549 227.742 83.8007 206.25 72.1086 206.25H71.0162C71.0162 199.727 75.9079 192.372 84.893 192.372C113.463 192.372 111.555 234.542 67.4777 234.542C41.0769 234.542 16.3228 213.865 16.3228 167.064V67.2006H0V60.6779Z" />
  <path d="M38.3533 0C63.9388 0 94.3995 19.3235 113.185 72.3861H113.462L132.786 131.156L147.756 86.5408L143.94 73.756C142.587 69.1249 138.233 66.1408 133.324 66.1408V60.6942H186.387V66.1408H186.11C179.848 66.1408 176.587 70.2173 178.495 76.4791L194.002 129.542L211.956 76.2021C213.864 70.2174 210.863 66.1408 204.602 66.1408H203.509V60.6942H234.264V66.1408H233.987C227.725 66.1408 222.018 70.2174 220.11 76.2021L184.462 184.496H177.385L151.8 99.6026L123.769 184.496H116.691L74.7826 58.5089C66.352 33.2006 55.182 6.81617 37.5053 6.81617C24.4435 6.81617 21.9969 28.3089 33.6889 28.3089H34.7814C34.7814 34.8317 29.8897 42.1857 20.9046 42.1857C-7.66508 42.1857 -5.75689 0.0163228 38.3206 0.0163228L38.3533 0Z" />
  <path d="M230.726 122.171C230.726 90.6009 249.773 59.3079 288.681 59.3079C327.589 59.3079 346.097 90.6009 346.097 122.171C346.097 153.741 327.051 184.757 288.143 184.757C249.234 184.757 230.726 153.464 230.726 122.171ZM288.697 177.68C303.389 177.68 310.467 149.926 310.467 122.449C310.467 94.9714 303.39 66.4016 288.159 66.4016C272.929 66.4016 266.112 94.1558 266.112 122.187C266.112 150.219 273.466 177.696 288.697 177.696V177.68Z" />
  <path d="M228.85 308.396V145.67H210.717L199.334 180.044L196.204 210.978C189.404 204.994 181.788 202.271 173.618 202.271C150.495 202.271 126.818 225.948 126.818 266.487C126.818 307.026 149.68 328.796 172.265 328.796C182.065 328.796 191.589 324.719 199.204 316.549C203.02 323.349 210.358 327.442 219.62 327.442H242.482V321.996C234.313 321.996 228.883 316.549 228.883 308.396H228.85ZM183.419 316.549C171.988 316.549 160.834 299.949 160.834 266.487C160.834 233.025 172.543 215.055 184.235 215.055C188.311 215.055 192.665 217.501 196.204 222.409V304.042C196.204 305.395 196.203 307.042 196.481 308.396C192.665 313.842 188.05 316.565 183.419 316.565V316.549Z" />
  <path d="M306.586 203.363C341.417 203.363 360.463 229.21 363.464 257.518C374.341 252.349 383.326 241.733 383.326 229.226C392.311 231.134 399.927 240.657 399.927 248.272C399.927 265.411 381.972 274.934 363.464 276.027C359.648 303.781 340.879 328.812 306.047 328.812C267.677 328.812 248.631 297.519 248.631 266.226C248.631 234.933 267.677 203.363 306.586 203.363ZM306.586 321.719C325.632 321.719 328.355 278.718 328.355 265.933C323.724 261.579 321.001 255.871 321.001 248.517C321.001 245.255 321.817 241.44 325.632 237.901C322.371 222.116 315.832 210.424 306.031 210.424C291.339 210.424 283.984 238.178 283.984 266.21C283.984 294.242 291.339 321.719 306.57 321.719H306.586Z" />
  <path d="M119.985 3.86456C122.105 3.86456 124.078 4.15817 125.905 4.76152C127.731 5.34857 129.28 6.19664 130.568 7.32181C132.003 8.51222 133.08 9.89842 133.797 11.5128C134.515 13.1109 134.874 14.8884 134.874 16.8452C134.874 20.8404 133.438 24.02 130.584 26.4008C129.28 27.4934 127.715 28.3251 125.905 28.9121C124.095 29.4992 122.121 29.8091 120.001 29.8091H111.408V29.483L112.696 29.2219C113.169 29.124 113.544 28.8959 113.837 28.5534C114.131 28.211 114.277 27.787 114.277 27.2978V6.42486C114.277 5.93565 114.131 5.51164 113.837 5.16919C113.544 4.82675 113.153 4.5986 112.696 4.50075L111.408 4.23999V3.91353H120.001L119.985 3.86456ZM118.729 4.61501V29.0427H119.985C122.92 29.0427 125.268 28.0969 127.013 26.189C127.943 25.2106 128.661 23.9058 129.166 22.3078C129.655 20.7097 129.899 18.8835 129.899 16.8289C129.899 14.7742 129.655 12.9476 129.166 11.3496C128.677 9.75149 127.959 8.44713 127.013 7.46872C125.268 5.56081 122.92 4.61501 119.985 4.61501H118.729Z" />
  <path d="M171.255 25.4389C171.059 26.0748 170.961 26.7434 170.961 27.4609C170.961 28.0479 171.043 28.537 171.189 28.8957C171.336 29.2708 171.564 29.4503 171.857 29.4503V29.7763H150.936V29.4503L152.224 29.1891C152.697 29.0913 153.072 28.8631 153.366 28.5207C153.659 28.1782 153.806 27.7542 153.806 27.265V6.39212C153.806 5.90292 153.659 5.47891 153.366 5.13646C153.072 4.79402 152.68 4.56586 152.224 4.46802L150.936 4.20725V3.8808H171.857V4.20725C171.564 4.20725 171.336 4.38638 171.189 4.76143C171.043 5.13649 170.961 5.6096 170.961 6.19665C170.961 6.91415 171.059 7.58272 171.255 8.21869C171.45 8.85465 171.678 9.16422 171.955 9.16422C171.466 9.50666 171.01 9.68615 170.586 9.68615C170.048 9.68615 169.607 9.44164 169.265 8.96874C168.939 8.49584 168.547 7.74556 168.14 6.76715C167.863 6.04965 167.618 5.51154 167.373 5.15278C167.128 4.79403 166.868 4.61493 166.574 4.61493H159.693C159.269 4.61493 158.926 4.81037 158.649 5.18543C158.371 5.56049 158.241 6.00087 158.241 6.50638V15.7196H158.975C160.117 15.7196 161.193 15.4587 162.237 14.9206C163.28 14.3825 164.112 13.6652 164.748 12.752L165.009 12.377H165.449V19.78H165.009L164.748 19.405C164.112 18.4918 163.264 17.7746 162.237 17.2364C161.209 16.6983 160.117 16.4374 158.975 16.4374H158.241V26.9553C158.241 27.5423 158.437 28.0314 158.829 28.4391C159.22 28.8304 159.709 29.0263 160.312 29.0263H166.574C166.868 29.0263 167.128 28.8468 167.373 28.488C167.601 28.1293 167.863 27.5912 168.14 26.8737C168.564 25.8953 168.939 25.145 169.265 24.6721C169.591 24.1829 170.031 23.9547 170.586 23.9547C171.01 23.9547 171.466 24.1342 171.955 24.4766C171.678 24.4766 171.45 24.7866 171.255 25.4225V25.4389Z" />
  <path d="M206.982 23.4817C206.982 25.406 206.102 27.0366 204.357 28.3738C203.525 28.9935 202.515 29.4666 201.357 29.809C200.199 30.1515 198.96 30.331 197.655 30.331C195.291 30.331 193.35 29.9719 191.833 29.2544C190.317 28.5369 189.224 27.7052 188.556 26.7431C187.887 25.781 187.561 24.9007 187.561 24.1179C187.561 23.2047 187.838 22.3404 188.377 21.5413C188.915 20.7423 189.762 20.3346 190.887 20.3346C191.556 20.3346 192.16 20.5628 192.698 21.0031C193.236 21.4433 193.513 21.9328 193.513 22.4383C192.991 22.5361 192.584 22.8297 192.29 23.2863C191.997 23.7592 191.85 24.2973 191.85 24.917C191.85 26.1074 192.257 27.1673 193.089 28.1457C193.92 29.1241 195.323 29.5805 197.296 29.5805C199.269 29.5805 200.672 29.0915 201.797 28.113C202.922 27.1346 203.476 25.8302 203.476 24.1995C203.476 23.319 203.166 22.5036 202.53 21.7535C201.895 21.0034 200.916 20.2858 199.546 19.5682C198.551 19.0301 197.296 18.4266 195.779 17.758C192.599 16.3719 190.349 14.823 189.045 13.0945C188.262 12.0834 187.854 10.8441 187.854 9.39276C187.854 7.74577 188.653 6.2946 190.268 5.05527C191.947 3.86487 193.97 3.27768 196.334 3.27768C198.454 3.27768 200.199 3.60396 201.569 4.23993C202.938 4.8759 203.933 5.64216 204.536 6.52273C205.14 7.40331 205.449 8.20228 205.449 8.90348C205.449 9.71882 205.189 10.4851 204.684 11.2189C204.178 11.9527 203.428 12.3118 202.417 12.3118C201.797 12.3118 201.242 12.1159 200.769 11.7245C200.28 11.3332 200.052 10.8928 200.052 10.4362C200.492 10.3384 200.851 10.0288 201.128 9.4907C201.406 8.95257 201.536 8.39809 201.536 7.81104C201.536 7.27292 201.389 6.71845 201.112 6.14771C200.834 5.57697 200.329 5.0879 199.611 4.66392C198.894 4.23995 197.932 4.02773 196.725 4.02773C195.143 4.02773 193.856 4.45178 192.861 5.31604C191.866 6.18031 191.36 7.28924 191.36 8.64271C191.36 9.53959 191.67 10.3549 192.306 11.0887C192.942 11.8226 193.921 12.5561 195.29 13.2736C196.497 13.9422 197.769 14.5457 199.106 15.0839C202.286 16.4862 204.52 18.0519 205.809 19.7478C206.624 20.7914 207.032 22.0141 207.032 23.4491L206.982 23.4817Z" />
  <path d="M230.562 5.12023C230.285 5.46267 230.155 5.88668 230.155 6.37589V27.2488C230.155 27.738 230.302 28.162 230.595 28.5045C230.889 28.8469 231.28 29.075 231.737 29.1729L233.025 29.4341V29.7601H222.817V29.4341L224.105 29.1729C224.578 29.075 224.953 28.8469 225.247 28.5045C225.54 28.162 225.687 27.738 225.687 27.2488V6.37589C225.687 5.88668 225.54 5.46267 225.247 5.12023C224.953 4.77778 224.562 4.54963 224.105 4.45179L222.817 4.19102V3.86456H233.025V4.19102L231.59 4.48443C231.166 4.56597 230.824 4.76147 230.546 5.12023H230.562Z" />
  <path d="M253.245 6.63697C254.256 5.57702 255.463 4.76166 256.849 4.17462C258.251 3.58757 259.686 3.3103 261.17 3.3103C263.323 3.3103 265.067 3.66891 266.437 4.38641C267.807 5.10392 268.802 5.95199 269.406 6.94671C270.009 7.94143 270.319 8.8545 270.319 9.68615C270.319 10.5178 270.074 11.2682 269.568 12.002C269.063 12.7358 268.296 13.0944 267.285 13.0944C266.666 13.0944 266.112 12.8986 265.639 12.5072C265.166 12.1158 264.921 11.6755 264.921 11.2189C265.362 11.1211 265.72 10.8766 265.997 10.5015C266.274 10.1101 266.405 9.73512 266.405 9.32745C266.405 8.03921 266.079 6.84888 265.41 5.74001C264.742 4.63115 263.47 4.07668 261.595 4.07668C259.621 4.07668 258.007 4.95743 256.784 6.70226C256.066 7.76221 255.528 9.16432 255.137 10.8928C254.762 12.6214 254.566 14.6111 254.566 16.8451C254.566 21.6067 255.283 25.0309 256.718 27.1344C257.289 27.9987 257.974 28.6513 258.773 29.1079C259.573 29.5645 260.404 29.7927 261.268 29.7927C262.801 29.7927 264.073 29.1078 265.084 27.7217C266.274 26.0747 266.862 23.4819 266.862 19.9759V17.9375H263.16V16.8288H271.297V19.9759C271.297 23.0905 270.254 25.6343 268.183 27.6401C267.318 28.4717 266.274 29.1402 265.051 29.6131C263.828 30.1023 262.573 30.3309 261.252 30.3309C259.801 30.3309 258.333 30.021 256.882 29.4177C255.43 28.8143 254.207 27.9989 253.213 26.9553C250.815 24.4114 249.625 21.0359 249.625 16.8125C249.625 12.589 250.832 9.19715 253.245 6.63697Z" />
  <path d="M307.808 6.53903C307.808 6.11505 307.678 5.74009 307.433 5.41395C307.189 5.0715 306.846 4.84294 306.439 4.72879L304.693 4.20725V3.8808H312.277V4.20725L310.499 4.72879C310.075 4.85924 309.749 5.08783 309.504 5.43027C309.26 5.77272 309.129 6.164 309.129 6.57167V30.1514H308.085L292.056 7.50128V27.1181C292.056 27.5421 292.186 27.9175 292.431 28.2436C292.675 28.5697 293.018 28.8142 293.426 28.9284L295.17 29.4503V29.7763H287.588V29.4503L289.365 28.9284C289.789 28.8142 290.115 28.5697 290.36 28.2273C290.604 27.8848 290.735 27.4935 290.735 27.0859V6.50638C290.735 6.03348 290.604 5.64213 290.327 5.29969C290.05 4.95724 289.692 4.74538 289.251 4.61493L287.588 4.20725V3.8808H294.436L307.792 22.8296V6.53903H307.808Z" />
</svg>
